<svg style="position: absolute; width: 0; height: 0; overflow: hidden;" version="1.1" xmlns="http://www.w3.org/2000/svg" xmlns:xlink="http://www.w3.org/1999/xlink">
<defs>

<symbol id="icon-videocam" viewBox="0 0 512 512">
<path d="M374.79 308.78L457.5 367a16 16 0 0022.5-14.62V159.62A16 16 0 00457.5 145l-82.71 58.22A16 16 0 00368 216.3v79.4a16 16 0 006.79 13.08z" fill="none" stroke="currentColor" stroke-linecap="round" stroke-linejoin="round" stroke-width="32"/>
<path d="M268 384H84a52.15 52.15 0 01-52-52V180a52.15 52.15 0 0152-52h184.48A51.68 51.68 0 01320 179.52V332a52.15 52.15 0 01-52 52z" fill="none" stroke="currentColor" stroke-miterlimit="10" stroke-width="32"/>
</symbol>

<symbol id="icon-book" viewBox="0 0 512 512">
<path d="M256 160c16-63.16 76.43-95.41 208-96a15.94 15.94 0 0116 16v288a16 16 0 01-16 16c-128 0-177.45 25.81-208 64-30.37-38-80-64-208-64-9.88 0-16-8.05-16-17.93V80a15.94 15.94 0 0116-16c131.57.59 192 32.84 208 96zM256 160v288" fill="none" stroke="currentColor" stroke-linecap="round" stroke-linejoin="round" stroke-width="32"/>
</symbol>

<symbol id="icon-fast-food"  viewBox="0 0 512 512">
<path d="M322 416c0 35.35-20.65 64-56 64H134c-35.35 0-56-28.65-56-64M336 336c17.67 0 32 17.91 32 40h0c0 22.09-14.33 40-32 40H64c-17.67 0-32-17.91-32-40h0c0-22.09 14.33-40 32-40" fill="none" stroke="currentColor" stroke-linecap="round" stroke-miterlimit="10" stroke-width="32"/>
<path d="M344 336H179.31a8 8 0 00-5.65 2.34l-26.83 26.83a4 4 0 01-5.66 0l-26.83-26.83a8 8 0 00-5.65-2.34H56a24 24 0 01-24-24h0a24 24 0 0124-24h288a24 24 0 0124 24h0a24 24 0 01-24 24zM64 276v-.22c0-55 45-83.78 100-83.78h72c55 0 100 29 100 84v-.22M241 112l7.44 63.97" fill="none" stroke="currentColor" stroke-linecap="round" stroke-miterlimit="10" stroke-width="32"/>
<path d="M256 480h139.31a32 32 0 0031.91-29.61L463 112" fill="none" stroke="currentColor" stroke-linecap="round" stroke-miterlimit="10" stroke-width="32"/><path fill="none" stroke="currentColor" stroke-linecap="round" stroke-linejoin="round" stroke-width="32" d="M368 112l16-64 47-16"/>
<path fill="none" stroke="currentColor" stroke-linecap="round" stroke-miterlimit="10" stroke-width="32" d="M224 112h256"/>
</symbol>

<symbol id="icon-locate" viewBox="0 0 512 512">
<path fill="none" stroke="currentColor" stroke-linecap="round" stroke-linejoin="round" stroke-width="48" d="M256 96V56M256 456v-40M256 112a144 144 0 10144 144 144 144 0 00-144-144zM416 256h40M56 256h40"/>
</symbol>

<symbol id="icon-play" viewBox="0 0 512 512">
<path d="M112 111v290c0 17.44 17 28.52 31 20.16l247.9-148.37c12.12-7.25 12.12-26.33 0-33.58L143 90.84c-14-8.36-31 2.72-31 20.16z" fill="none" stroke="currentColor" stroke-miterlimit="10" stroke-width="32"/>
</symbol>

<symbol id="icon-shuffle" viewBox="0 0 512 512">
<path fill="none" stroke="currentColor" stroke-linecap="round" stroke-linejoin="round" stroke-width="32" d="M400 304l48 48-48 48M400 112l48 48-48 48M64 352h85.19a80 80 0 0066.56-35.62L256 256"/>
<path d="M64 160h85.19a80 80 0 0166.56 35.62l80.5 120.76A80 80 0 00362.81 352H416M416 160h-53.19a80 80 0 00-66.56 35.62L288 208" fill="none" stroke="currentColor" stroke-linecap="round" stroke-linejoin="round" stroke-width="32"/>
</symbol>


<symbol id="icon-sport" viewBox="0 0 512 512">
<circle cx="256" cy="256" r="208" fill="none" stroke="currentColor" stroke-linecap="round" stroke-linejoin="round" stroke-width="32"/>
<path d="M461.43 271.44c-5.09.37-8.24.56-13.43.56-114.88 0-208-93.12-208-208 0-5.37.2-8.69.6-14M49.65 240.56S58.84 240 64 240c114.88 0 208 93.12 208 208 0 5.38-.61 14-.61 14" fill="none" stroke="currentColor" stroke-linecap="round" stroke-linejoin="round" stroke-width="32"/>
</symbol>

<symbol id="icon-checkmark" viewBox="0 0 512 512">
<path fill="none" stroke="currentColor" stroke-linecap="round" stroke-linejoin="round" stroke-width="32" d="M416 128L192 384l-96-96"/>
</symbol>

<symbol id="icon-cross" viewBox="0 0 512 512">
<path fill="none" stroke="currentColor" stroke-linecap="round" stroke-linejoin="round" stroke-width="32" d="M368 368L144 144M368 144L144 368"/>
</symbol>

<symbol id="icon-loader" viewBox="0 0 24 24">
<path d="M11 2v4c0 0.552 0.448 1 1 1s1-0.448 1-1v-4c0-0.552-0.448-1-1-1s-1 0.448-1 1zM11 18v4c0 0.552 0.448 1 1 1s1-0.448 1-1v-4c0-0.552-0.448-1-1-1s-1 0.448-1 1zM4.223 5.637l2.83 2.83c0.391 0.391 1.024 0.391 1.414 0s0.391-1.024 0-1.414l-2.83-2.83c-0.391-0.391-1.024-0.391-1.414 0s-0.391 1.024 0 1.414zM15.533 16.947l2.83 2.83c0.391 0.391 1.024 0.391 1.414 0s0.391-1.024 0-1.414l-2.83-2.83c-0.391-0.391-1.024-0.391-1.414 0s-0.391 1.024 0 1.414zM2 13h4c0.552 0 1-0.448 1-1s-0.448-1-1-1h-4c-0.552 0-1 0.448-1 1s0.448 1 1 1zM18 13h4c0.552 0 1-0.448 1-1s-0.448-1-1-1h-4c-0.552 0-1 0.448-1 1s0.448 1 1 1zM5.637 19.777l2.83-2.83c0.391-0.391 0.391-1.024 0-1.414s-1.024-0.391-1.414 0l-2.83 2.83c-0.391 0.391-0.391 1.024 0 1.414s1.024 0.391 1.414 0zM16.947 8.467l2.83-2.83c0.391-0.391 0.391-1.024 0-1.414s-1.024-0.391-1.414 0l-2.83 2.83c-0.391 0.391-0.391 1.024 0 1.414s1.024 0.391 1.414 0z"></path>
</symbol>

</defs>
</svg>

